<svg width="36" height="36" viewBox="0 0 36 36" fill="none" xmlns="http://www.w3.org/2000/svg">
<path d="M12.9178 27.9647V20.0015" stroke="#4B8F49" stroke-width="2.16" stroke-linecap="round" stroke-linejoin="round"/>
<path d="M4.00624 20.3987C3.97524 19.8327 4.05996 19.2663 4.25524 18.7341C4.45051 18.2018 4.75222 17.715 5.14197 17.3033C5.53172 16.8917 6.0013 16.5637 6.52203 16.3396C7.04278 16.1155 7.60374 16 8.17065 16C8.73755 16 9.2985 16.1155 9.81923 16.3396C10.34 16.5637 10.8096 16.8917 11.1993 17.3033C11.589 17.715 11.8908 18.2018 12.0861 18.7341C12.2813 19.2663 12.366 19.8327 12.335 20.3987V27.4289C12.366 27.9949 12.2813 28.5614 12.0861 29.0936C11.8908 29.6258 11.589 30.1126 11.1993 30.5243C10.8096 30.9359 10.34 31.2639 9.81923 31.488C9.2985 31.712 8.73755 31.8276 8.17065 31.8276C7.60374 31.8276 7.04278 31.712 6.52203 31.488C6.0013 31.2639 5.53172 30.9359 5.14197 30.5243C4.75222 30.1126 4.45051 29.6258 4.25524 29.0936C4.05996 28.5614 3.97524 27.9949 4.00624 27.4289V20.3987Z" stroke="#4B8F49" stroke-width="1.87304" stroke-linecap="round" stroke-linejoin="round"/>
<path d="M12.9179 26.3518C12.9141 26.9853 13.0352 27.6133 13.2741 28.2001C13.513 28.7867 13.8652 29.3207 14.3105 29.7714C14.7557 30.222 15.2853 30.5805 15.8693 30.8264C16.453 31.0723 17.0796 31.2009 17.7132 31.2046H23.646C25.0293 31.2036 26.3751 30.7539 27.4811 29.923C28.5872 29.0922 29.394 27.9249 29.7804 26.5966L31.9404 19.2814C32.1123 18.7952 32.1656 18.2749 32.0961 17.7638C32.0264 17.2528 31.8357 16.7658 31.5401 16.3433C31.2443 15.9208 30.8519 15.5749 30.3956 15.3345C29.9392 15.0942 29.4321 14.9663 28.9164 14.9614H20.9676V7.35823C20.9695 7.08212 20.9169 6.80842 20.8131 6.55262C20.7091 6.29682 20.5559 6.06398 20.3619 5.86742C20.1681 5.67085 19.9374 5.51436 19.683 5.40695C19.4287 5.29956 19.1556 5.24334 18.8796 5.24146C18.4253 5.24351 17.9841 5.39368 17.6229 5.66914C17.2616 5.94459 17.0001 6.33033 16.878 6.76785L12.9179 19.9582V26.3518Z" fill="#4B8F49" stroke="#4B8F49" stroke-width="2.16" stroke-linecap="round" stroke-linejoin="round"/>
</svg>
